<svg width="64" height="64" viewBox="0 0 64 64" xmlns="http://www.w3.org/2000/svg">
  <rect x="30" y="6" width="4" height="8" rx="2" fill="#1A8FA8"/>
  <circle cx="32" cy="6" r="4" fill="#FAA918"/>

  <rect x="12" y="20" width="40" height="34" rx="12" fill="#1A8FA8"/>
  <rect x="12" y="16" width="40" height="34" rx="12" fill="#14D4F4"/>

  <rect x="18" y="24" width="28" height="20" rx="8" fill="#0E2A47"/>

  <circle cx="26" cy="34" r="4" fill="#FFFFFF"/>
  <circle cx="26" cy="34" r="2" fill="#0E2A47"/>
  <circle cx="38" cy="34" r="4" fill="#FFFFFF"/>
  <circle cx="38" cy="34" r="2" fill="#0E2A47"/>

  <path d="M27 40 Q32 43 37 40" fill="none" stroke="#14D4F4" stroke-width="2.4" stroke-linecap="round"/>

  <rect x="4" y="30" width="6" height="10" rx="3" fill="#1A4F94"/>
  <rect x="4" y="28" width="6" height="10" rx="3" fill="#2B70C9"/>
  <rect x="54" y="30" width="6" height="10" rx="3" fill="#1A4F94"/>
  <rect x="54" y="28" width="6" height="10" rx="3" fill="#2B70C9"/>

  <rect x="17" y="20" width="10" height="4" rx="2" fill="#6FEBFA"/>
</svg>
